<svg width="100%" height="100%" viewBox="0 0 52 52" version="1.1" style="fill-rule:evenodd;clip-rule:evenodd;stroke-linejoin:round;stroke-miterlimit:2;">
<path d="M25.602,0c14.13,0 25.601,11.472 25.601,25.602c0,14.13 -11.471,25.601 -25.601,25.601c-14.13,0 -25.602,-11.471 -25.602,-25.601c-0,-14.13 11.472,-25.602 25.602,-25.602Zm17.384,40.039c3.257,-3.916 5.217,-8.95 5.217,-14.437c0,-12.474 -10.127,-22.602 -22.601,-22.602c-12.474,0 -22.602,10.128 -22.602,22.602c0,5.606 2.046,10.738 5.43,14.69c1.13,-5.758 5.675,-10.341 11.138,-12.338c-2.836,-1.932 -4.7,-5.188 -4.7,-8.876c-0,-5.924 4.81,-10.734 10.734,-10.734c5.924,0 10.733,4.81 10.733,10.734c0,3.688 -1.863,6.944 -4.7,8.876c5.383,1.967 10.603,6.459 11.351,12.085Zm-2.869,2.882c-0.784,-7.32 -6.988,-13.03 -14.515,-13.03c-7.528,0 -13.732,5.71 -14.515,13.03c3.927,3.296 8.991,5.282 14.515,5.282c5.523,0 10.587,-1.986 14.515,-5.282Zm-14.515,-31.577c-4.269,0 -7.734,3.466 -7.734,7.734c0,4.268 3.465,7.733 7.734,7.733c4.268,0 7.733,-3.465 7.733,-7.733c0,-4.268 -3.465,-7.734 -7.733,-7.734Z"/>
</svg>