<?xml version="1.0" encoding="UTF-8" standalone="no"?><!DOCTYPE svg PUBLIC "-//W3C//DTD SVG 1.1//EN" "http://www.w3.org/Graphics/SVG/1.1/DTD/svg11.dtd"><svg width="100%" height="100%" viewBox="0 0 424 360" version="1.1" xmlns="http://www.w3.org/2000/svg" xmlns:xlink="http://www.w3.org/1999/xlink" xml:space="preserve" xmlns:serif="http://www.serif.com/" style="fill-rule:evenodd;clip-rule:evenodd;stroke-linejoin:round;stroke-miterlimit:2;"><g id="Light"><path d="M244.25,49.23c15.84,-5.73 32.96,-6.68 49.64,-5.65c19.37,1.33 39.4,6.29 54.64,18.92c11.6,9.47 19.06,23.18 22.73,37.55c4.67,18.23 4.55,37.28 3.15,55.92c-0.05,3.25 -3.17,5.98 -6.38,5.75c-3.39,-0.05 -6.3,-3.32 -5.78,-6.72c0.41,-7.3 0.72,-14.61 0.56,-21.92c-0.21,-18.51 -2.97,-38.27 -14.53,-53.38c-8.94,-11.82 -22.95,-18.62 -37.21,-21.53c-8.76,-1.89 -17.73,-2.61 -26.67,-2.69c-19.34,-0.31 -40.07,2.96 -55.42,15.61c-17.07,14.16 -24.18,37.31 -23.6,58.91c0.81,10.45 -2.46,21.17 -9.2,29.24c-8.68,10.8 -21.91,16.74 -35.05,20.16c-18.91,4.74 -38.7,4.76 -58,2.76c-15.85,-1.98 -32.53,-6.63 -43.88,-18.55c-10.84,-11.2 -14.69,-27.41 -14.06,-42.62c-0.17,-9.82 2.34,-19.47 6.34,-28.38c0.23,-11.88 -0.44,-23.78 -0.31,-35.67c-0.12,-4.28 5.2,-7.13 8.83,-5.01c7.33,3.75 14.56,7.71 21.87,11.53c27.35,-14.38 61.74,-14.32 89.1,0.01c6.36,-3.35 12.66,-6.82 19.08,-10.06c3.44,-2.03 8.34,0.6 8.73,4.52c0.51,2.65 -1.03,5.29 -3.4,6.45c-6.49,3.57 -13.11,6.89 -19.61,10.43c-1.82,0.9 -3.74,2.12 -5.86,1.65c-2.29,-0.73 -4.32,-2.07 -6.47,-3.11c-10.81,-5.34 -22.84,-8.01 -34.87,-8.37c-0.22,0.42 -0.65,1.26 -0.87,1.67c-0.68,-0.55 -1.34,-1.13 -1.97,-1.73c-12.58,0.31 -25.3,2.75 -36.56,8.57c-3.07,1.38 -6.45,4.17 -9.93,2.35c-5.35,-2.5 -10.43,-5.55 -15.71,-8.2c0.05,8.12 0.21,16.24 0.29,24.36c0.3,4.71 -2.8,8.58 -3.98,12.95c-2.99,9.77 -3.03,20.26 -1.66,30.31c1.33,8.57 5.49,16.8 12.3,22.28c9.92,8.17 22.95,11 35.4,12.54c17.28,1.78 34.98,1.67 51.92,-2.54c10.25,-2.65 20.56,-6.9 27.97,-14.7c5.25,-5.52 7.75,-13.25 7.38,-20.8c-0.81,-18.4 3.14,-37.36 13.03,-53.05c8.77,-13.91 22.56,-24.33 38.02,-29.76Z" style="fill:#d9d9d9;fill-rule:nonzero;"/><path d="M88.24,98.28c6.43,-2.99 14.19,4.03 11.91,10.73c-1.41,6.25 -9.92,8.74 -14.56,4.4c-5.12,-4.06 -3.42,-12.96 2.65,-15.13Z" style="fill:#d9d9d9;fill-rule:nonzero;"/><path d="M155.35,98.53c6.41,-3.54 14.78,3.43 12.51,10.35c-1.33,6.15 -9.71,8.96 -14.4,4.68c-5.07,-3.77 -3.99,-12.66 1.89,-15.03Z" style="fill:#d9d9d9;fill-rule:nonzero;"/><path d="M255.17,98.12c6.04,-2.33 12.98,3.65 11.59,9.98c-0.73,6.49 -9.45,9.93 -14.39,5.57c-5.66,-3.97 -3.87,-13.78 2.8,-15.55Z" style="fill:#d9d9d9;fill-rule:nonzero;"/><path d="M309.3,98.46c5.7,-2.92 13.19,2.22 12.55,8.58c0.05,6.39 -7.93,10.9 -13.33,7.37c-6.28,-3.11 -5.84,-13.51 0.78,-15.95Z" style="fill:#d9d9d9;fill-rule:nonzero;"/><path d="M229.06,115.3c3.04,-2.16 7.8,-0.77 9.13,2.75c1.32,3.43 -1.04,6.74 -1.77,10.03c-2.34,8.31 -4.42,17.75 -0.46,25.9c3.43,7 11.82,9.38 19.04,9.67c5.95,0.06 12.88,0.27 17.47,-4.2c4.34,-4.57 6.11,-11.29 5.22,-17.46c-3.4,-1.6 -8.57,-3.94 -7.23,-8.63c2.23,-5.01 8.59,-6.26 13.54,-6.14c4.68,0.17 10.56,1.73 12.22,6.68c0.62,3.59 -2.81,5.82 -5.5,7.32c-0.91,6.58 0.77,13.88 5.68,18.58c4.16,3.84 10.24,3.84 15.56,3.89c6.96,-0.09 14.84,-1.74 19.26,-7.61c4.37,-6.15 3.88,-14.27 2.5,-21.31c-0.82,-4.36 -2.41,-8.52 -3.51,-12.81c-1.36,-3.64 1.98,-7.97 5.84,-7.66c2.62,-0.13 4.83,1.83 5.71,4.19c2.2,5.49 3.49,11.31 4.49,17.13c1.26,9.12 0.73,19.14 -4.61,26.97c-5.81,8.7 -16.47,12.93 -26.64,13.25c-6.33,0.13 -12.9,0.21 -18.89,-2.15c-4.75,-1.78 -8.84,-5.06 -11.9,-9.08c-4.48,6.09 -11.52,10.06 -19.03,10.86c-9.63,0.97 -19.94,0.74 -28.6,-4.09c-6.86,-3.68 -11.98,-10.33 -13.8,-17.9c-2.69,-10.9 -0.33,-22.25 3.05,-32.72c0.7,-1.97 1.32,-4.29 3.23,-5.46Z" style="fill:#d9d9d9;fill-rule:nonzero;"/><path d="M119.43,129.6c4.75,-1.26 10.04,-0.92 14.42,1.41c2.42,1.34 4.78,3.98 3.79,6.96c-1.02,2.7 -3.75,4.32 -6.37,5.2c-5.26,1.65 -11.32,1.36 -16.09,-1.56c-1.93,-1.18 -3.56,-3.31 -3.38,-5.68c0.86,-3.53 4.37,-5.46 7.63,-6.33Z" style="fill:#d9d9d9;fill-rule:nonzero;"/><path d="M284.4,55.48c8.94,0.08 17.91,0.8 26.67,2.69c14.26,2.91 28.27,9.71 37.21,21.53c11.56,15.11 14.32,34.87 14.53,53.38c-5.42,1.39 -10.94,2.57 -16.56,2.54c-1,-5.82 -2.29,-11.64 -4.49,-17.13c-0.88,-2.36 -3.09,-4.32 -5.71,-4.19c-3.86,-0.31 -7.2,4.02 -5.84,7.66c1.1,4.29 2.69,8.45 3.51,12.81c-17.47,-2.96 -33.41,-13.8 -42.63,-28.92c-9.21,-14.86 -11.77,-33.63 -6.69,-50.37m24.9,42.98c-6.62,2.44 -7.06,12.84 -0.78,15.95c5.4,3.53 13.38,-0.98 13.33,-7.37c0.64,-6.36 -6.85,-11.5 -12.55,-8.58Z" style="fill:#fe6501;fill-rule:nonzero;"/><path d="M89.22,73.49c11.26,-5.82 23.98,-8.26 36.56,-8.57c0.63,0.6 1.29,1.18 1.97,1.73l0.37,0.3c1.63,12.61 -1.34,25.59 -7.48,36.66c-8.41,15.28 -23.56,26.59 -40.56,30.46c-7.14,1.8 -14.56,1.84 -21.85,1.19c-1.37,-10.05 -1.33,-20.54 1.66,-30.31c1.18,-4.37 4.28,-8.24 3.98,-12.95c-0.08,-8.12 -0.24,-16.24 -0.29,-24.36c5.28,2.65 10.36,5.7 15.71,8.2c3.48,1.82 6.86,-0.97 9.93,-2.35m-0.98,24.79c-6.07,2.17 -7.77,11.07 -2.65,15.13c4.64,4.34 13.15,1.85 14.56,-4.4c2.28,-6.7 -5.48,-13.72 -11.91,-10.73Z" style="fill:#e9967a;fill-rule:nonzero;"/><g transform="matrix(61.9549,0,0,61.9549,396.725,267.187)"></g><text x="35.962px" y="267.187px" style="font-family:'Kanit-SemiBold', 'Kanit SemiBold';font-weight:600;font-size:61.955px;fill:#d9d9d9;">F<tspan x="67.249px " y="267.187px ">u</tspan>rr Bud<tspan x="277.276px " y="267.187px ">d</tspan>ie<tspan x="367.049px " y="267.187px ">s</tspan></text></g></svg>